<svg xmlns="http://www.w3.org/2000/svg" viewBox="0 0 25 25" id="todo"><path d="M20.4,12.349a.5.5,0,0,1-.5.5H11.288a.5.5,0,0,1,0-1H19.9A.5.5,0,0,1,20.4,12.349ZM11.288,6.8H19.9a.5.5,0,0,0,0-1H11.288a.5.5,0,0,0,0,1ZM19.9,17.9H11.288a.5.5,0,0,0,0,1H19.9a.5.5,0,0,0,0-1ZM6.85,10.1a2.25,2.25,0,1,0,2.25,2.25A2.253,2.253,0,0,0,6.85,10.1Zm1.54-5.57L6.34,6.949l-.84-1.1a.5.5,0,0,0-.7-.1.507.507,0,0,0-.1.7l1.22,1.6a.517.517,0,0,0,.39.2h.01a.527.527,0,0,0,.38-.18l2.45-2.9a.5.5,0,0,0-.76-.64ZM6.85,16.149A2.25,2.25,0,1,0,9.1,18.4,2.253,2.253,0,0,0,6.85,16.149Z"></path></svg>